<svg xmlns="http://www.w3.org/2000/svg" xmlns:xlink="http://www.w3.org/1999/xlink" contentStyleType="text/css" data-diagram-type="DESCRIPTION" height="697.9167px" preserveAspectRatio="none" style="width:969px;height:697px;" version="1.1" viewBox="0 0 969 697" width="969.7917px" zoomAndPan="magnify"><?plantuml 1.2026.4beta2?><defs><linearGradient id="g19wl44tkhb0vu0" x1="50%" x2="50%" y1="0%" y2="100%"><stop offset="0%" stop-color="#F18E3E"/><stop offset="100%" stop-color="#EC7211"/></linearGradient></defs><g><!--cluster Sistema de Gest?o das Olimp?adas (SGO)--><g class="cluster" data-qualified-name="Sistema de Gest.o das Olimp.adas .SGO." data-source-line="10" id="ent0005"><rect fill="none" height="510.4167" rx="4.1667" ry="4.1667" style="stroke:#4E5D6C;stroke-width:2.0833;" width="819.0313" x="136.7188" y="44.25"/><text fill="#4E5D6C" font-family="'Verdana'" font-size="12.5" font-weight="700" lengthAdjust="spacing" textLength="289.8499" x="401.3094" y="57.9361">Sistema de Gest&#227;o das Olimp&#237;adas (SGO)</text></g><!--entity UC01--><g class="entity" data-qualified-name="Sistema de Gest.o das Olimp.adas .SGO..UC01" data-source-line="13" id="ent0006"><ellipse cx="551.3722" cy="103.6203" fill="url(#g19wl44tkhb0vu0)" rx="91.2784" ry="20.7557" style="stroke:#EC7211;stroke-width:2.0833;"/><text fill="#FFFFFF" font-family="'Verdana'" font-size="12.5" lengthAdjust="spacing" textLength="160.5957" x="471.0743" y="107.2498">Inscrever em Competi&#231;&#227;o</text></g><!--entity UC02--><g class="entity" data-qualified-name="Sistema de Gest.o das Olimp.adas .SGO..UC02" data-source-line="14" id="ent0007"><ellipse cx="853.3601" cy="98.4137" fill="url(#g19wl44tkhb0vu0)" rx="84.3081" ry="19.3616" style="stroke:#EC7211;stroke-width:2.0833;"/><text fill="#FFFFFF" font-family="'Verdana'" font-size="12.5" lengthAdjust="spacing" textLength="145.1538" x="780.7832" y="102.0433">Consultar Competi&#231;&#245;es</text></g><!--entity UC03--><g class="entity" data-qualified-name="Sistema de Gest.o das Olimp.adas .SGO..UC03" data-source-line="15" id="ent0008"><ellipse cx="244.2406" cy="166.1231" fill="url(#g19wl44tkhb0vu0)" rx="78.8447" ry="18.2689" style="stroke:#EC7211;stroke-width:2.0833;"/><text fill="#FFFFFF" font-family="'Verdana'" font-size="12.5" lengthAdjust="spacing" textLength="132.8186" x="177.8313" y="169.7527">Consultar Resultados</text></g><!--entity UC04--><g class="entity" data-qualified-name="Sistema de Gest.o das Olimp.adas .SGO..UC04" data-source-line="16" id="ent0009"><ellipse cx="244.24" cy="94.2459" fill="url(#g19wl44tkhb0vu0)" rx="71.1254" ry="16.7251" style="stroke:#EC7211;stroke-width:2.0833;"/><text fill="#FFFFFF" font-family="'Verdana'" font-size="12.5" lengthAdjust="spacing" textLength="114.9048" x="186.7876" y="97.8755">Cancelar Inscri&#231;&#227;o</text></g><!--entity UC05--><g class="entity" data-qualified-name="Sistema de Gest.o das Olimp.adas .SGO..UC05" data-source-line="19" id="ent0010"><ellipse cx="244.2385" cy="385.9164" fill="url(#g19wl44tkhb0vu0)" rx="82.0301" ry="18.906" style="stroke:#EC7211;stroke-width:2.0833;"/><text fill="#FFFFFF" font-family="'Verdana'" font-size="12.5" lengthAdjust="spacing" textLength="140.0391" x="174.2189" y="389.546">Cadastrar Competi&#231;&#227;o</text></g><!--entity UC06--><g class="entity" data-qualified-name="Sistema de Gest.o das Olimp.adas .SGO..UC06" data-source-line="20" id="ent0011"><ellipse cx="244.2373" cy="454.662" fill="url(#g19wl44tkhb0vu0)" rx="55.7061" ry="13.6412" style="stroke:#EC7211;stroke-width:2.0833;"/><text fill="#FFFFFF" font-family="'Verdana'" font-size="12.5" lengthAdjust="spacing" textLength="75.9338" x="206.2704" y="458.2916">Alocar Local</text></g><!--entity UC07--><g class="entity" data-qualified-name="Sistema de Gest.o das Olimp.adas .SGO..UC07" data-source-line="21" id="ent0012"><ellipse cx="551.3738" cy="433.8375" fill="url(#g19wl44tkhb0vu0)" rx="82.03" ry="21.6188" style="stroke:#EC7211;stroke-width:2.0833;"/><text fill="#FFFFFF" font-family="'Verdana'" font-size="12.5" lengthAdjust="spacing" textLength="124.1638" x="489.2918" y="433.3278">Verificar Conflito de</text><text fill="#FFFFFF" font-family="'Verdana'" font-size="12.5" lengthAdjust="spacing" textLength="46.106" x="528.3208" y="447.8786">Hor&#225;rio</text></g><!--entity UC08--><g class="entity" data-qualified-name="Sistema de Gest.o das Olimp.adas .SGO..UC08" data-source-line="22" id="ent0013"><ellipse cx="551.3709" cy="326.545" fill="url(#g19wl44tkhb0vu0)" rx="74.8084" ry="17.4617" style="stroke:#EC7211;stroke-width:2.0833;"/><text fill="#FFFFFF" font-family="'Verdana'" font-size="12.5" lengthAdjust="spacing" textLength="123.5352" x="489.6034" y="330.1746">Registrar Resultado</text></g><!--entity UC09--><g class="entity" data-qualified-name="Sistema de Gest.o das Olimp.adas .SGO..UC09" data-source-line="23" id="ent0014"><ellipse cx="853.36" cy="326.541" fill="url(#g19wl44tkhb0vu0)" rx="85.7141" ry="22.1035" style="stroke:#EC7211;stroke-width:2.0833;"/><text fill="#FFFFFF" font-family="'Verdana'" font-size="12.5" lengthAdjust="spacing" textLength="126.6418" x="790.0391" y="325.2616">Definir Classifica&#231;&#227;o</text><text fill="#FFFFFF" font-family="'Verdana'" font-size="12.5" lengthAdjust="spacing" textLength="74.8657" x="815.9271" y="339.8124">(1&#186;, 2&#186; e 3&#186;)</text></g><!--entity UC10--><g class="entity" data-qualified-name="Sistema de Gest.o das Olimp.adas .SGO..UC10" data-source-line="24" id="ent0015"><ellipse cx="551.3757" cy="515.0805" fill="url(#g19wl44tkhb0vu0)" rx="68.1361" ry="22.9139" style="stroke:#EC7211;stroke-width:2.0833;"/><text fill="#FFFFFF" font-family="'Verdana'" font-size="12.5" lengthAdjust="spacing" textLength="95.6055" x="503.573" y="512.5738">Gerar Relat&#243;rio</text><text fill="#FFFFFF" font-family="'Verdana'" font-size="12.5" lengthAdjust="spacing" textLength="79.2358" x="511.7578" y="527.1245">de Medalhas</text></g><!--entity UC11--><g class="entity" data-qualified-name="Sistema de Gest.o das Olimp.adas .SGO..UC11" data-source-line="25" id="ent0016"><ellipse cx="244.2378" cy="521.3288" fill="url(#g19wl44tkhb0vu0)" rx="68.6233" ry="16.2247" style="stroke:#EC7211;stroke-width:2.0833;"/><text fill="#FFFFFF" font-family="'Verdana'" font-size="12.5" lengthAdjust="spacing" textLength="108.9355" x="189.7701" y="524.9584">Gerenciar Atletas</text></g><!--entity UC12--><g class="entity" data-qualified-name="Sistema de Gest.o das Olimp.adas .SGO..UC12" data-source-line="28" id="ent0017"><ellipse cx="244.2439" cy="308.8309" fill="url(#g19wl44tkhb0vu0)" rx="90.8585" ry="21.6017" style="stroke:#EC7211;stroke-width:2.0833;"/><text fill="#FFFFFF" font-family="'Verdana'" font-size="12.5" lengthAdjust="spacing" textLength="138.1836" x="175.1521" y="308.3488">Contabilizar Medalhas</text><text fill="#FFFFFF" font-family="'Verdana'" font-size="12.5" lengthAdjust="spacing" textLength="49.8779" x="219.3049" y="322.8996">por Pa&#237;s</text></g><!--entity UC13--><g class="entity" data-qualified-name="Sistema de Gest.o das Olimp.adas .SGO..UC13" data-source-line="29" id="ent0018"><ellipse cx="244.2409" cy="235.9128" fill="url(#g19wl44tkhb0vu0)" rx="62.5847" ry="15.0169" style="stroke:#EC7211;stroke-width:2.0833;"/><text fill="#FFFFFF" font-family="'Verdana'" font-size="12.5" lengthAdjust="spacing" textLength="94.0674" x="197.2072" y="239.5423">Notificar Atleta</text></g><!--entity Atleta--><g class="entity" data-qualified-name="Atleta" data-source-line="6" id="ent0002"><ellipse cx="47.0049" cy="14.5833" fill="url(#g19wl44tkhb0vu0)" rx="8.3333" ry="8.3333" style="stroke:#EC7211;stroke-width:1.0417;"/><path d="M47.0049,22.9167 L47.0049,51.0417 M33.4633,31.25 L60.5466,31.25 M47.0049,51.0417 L33.4633,66.6667 M47.0049,51.0417 L60.5466,66.6667" fill="none" style="stroke:#EC7211;stroke-width:1.0417;"/><text fill="#4E5D6C" font-family="'Verdana'" font-size="12.5" lengthAdjust="spacing" textLength="37.1765" x="28.4167" y="80.3528">Atleta</text></g><!--entity Organizador--><g class="entity" data-qualified-name="Organizador" data-source-line="7" id="ent0003"><ellipse cx="47.0073" cy="491.6667" fill="url(#g19wl44tkhb0vu0)" rx="8.3333" ry="8.3333" style="stroke:#EC7211;stroke-width:1.0417;"/><path d="M47.0073,500 L47.0073,528.125 M33.4656,508.3333 L60.549,508.3333 M47.0073,528.125 L33.4656,543.75 M47.0073,528.125 L60.549,543.75" fill="none" style="stroke:#EC7211;stroke-width:1.0417;"/><text fill="#4E5D6C" font-family="'Verdana'" font-size="12.5" lengthAdjust="spacing" textLength="76.9104" x="8.5521" y="557.4361">Organizador</text></g><!--entity Sistema--><g class="entity" data-qualified-name="Sistema" data-source-line="8" id="ent0004"><ellipse cx="47.0032" cy="239.6042" fill="url(#g19wl44tkhb0vu0)" rx="8.3333" ry="8.3333" style="stroke:#EC7211;stroke-width:1.0417;"/><path d="M47.0032,247.9375 L47.0032,276.0625 M33.4615,256.2708 L60.5448,256.2708 M47.0032,276.0625 L33.4615,291.6875 M47.0032,276.0625 L60.5448,291.6875" fill="none" style="stroke:#EC7211;stroke-width:1.0417;"/><text fill="#4E5D6C" font-family="'Verdana'" font-size="12.5" lengthAdjust="spacing" textLength="50.3479" x="6.25" y="305.3736">Sistema</text><text fill="#4E5D6C" font-family="'Verdana'" font-size="12.5" lengthAdjust="spacing" textLength="81.5063" x="6.25" y="319.9244">(Autom&#225;tico)</text></g><!--link Atleta to UC01--><g class="link" data-entity-1="ent0002" data-entity-2="ent0006" data-link-type="dependency" data-source-line="32" id="lnk19"><path d="M66.0417,40.4792 C80.5729,37.8333 101.5729,34.9375 120.0521,35.9167 C216.0313,41.0208 240.1458,43.9375 335.0938,58.8333 C386.375,66.8854 437.8195,77.6472 480.4966,87.2618" fill="none" id="Atleta-to-UC01" style="stroke:#EC7211;stroke-width:3.125;"/><polygon fill="#EC7211" points="486.5938,88.6354,478.3637,82.5102,481.5128,87.4907,476.5322,90.6398,486.5938,88.6354" style="stroke:#EC7211;stroke-width:3.125;"/></g><!--link Atleta to UC02--><g class="link" data-entity-1="ent0002" data-entity-2="ent0007" data-link-type="dependency" data-source-line="33" id="lnk20"><path d="M66.0833,44.2292 C138.5833,44.2604 415.7188,45.7083 642.6563,65.0833 C691.8646,69.2917 740.8623,77.1054 782.2373,84.6679" fill="none" id="Atleta-to-UC02" style="stroke:#EC7211;stroke-width:3.125;"/><polygon fill="#EC7211" points="788.3854,85.7917,779.9124,80.0073,783.262,84.8552,778.414,88.2048,788.3854,85.7917" style="stroke:#EC7211;stroke-width:3.125;"/></g><!--link Atleta to UC03--><g class="link" data-entity-1="ent0002" data-entity-2="ent0008" data-link-type="dependency" data-source-line="34" id="lnk21"><path d="M65.8646,69.2396 C80.6354,88.2813 103.2292,113.8437 128.3854,129.6667 C145.375,140.3646 159.7772,146.3951 178.6313,151.968" fill="none" id="Atleta-to-UC03" style="stroke:#EC7211;stroke-width:3.125;"/><polygon fill="#EC7211" points="184.625,153.7396,176.8156,147.0864,179.6303,152.2632,174.4534,155.0779,184.625,153.7396" style="stroke:#EC7211;stroke-width:3.125;"/></g><!--link Atleta to UC04--><g class="link" data-entity-1="ent0002" data-entity-2="ent0009" data-link-type="dependency" data-source-line="35" id="lnk22"><path d="M66.0521,48.8646 C95.0208,56.2917 146.8832,69.5733 188.6228,80.2712" fill="none" id="Atleta-to-UC04" style="stroke:#EC7211;stroke-width:3.125;"/><polygon fill="#EC7211" points="194.6771,81.8229,186.6301,75.4591,189.6318,80.5298,184.5611,83.5315,194.6771,81.8229" style="stroke:#EC7211;stroke-width:3.125;"/></g><!--link Organizador to UC05--><g class="link" data-entity-1="ent0003" data-entity-2="ent0010" data-link-type="dependency" data-source-line="38" id="lnk23"><path d="M72.0104,481.8646 C86.1458,461.5313 105.7083,437.8333 128.3854,422.375 C144.1979,411.6042 157.3936,405.6876 175.5082,400.1981" fill="none" id="Organizador-to-UC05" style="stroke:#EC7211;stroke-width:3.125;"/><polygon fill="#EC7211" points="181.4896,398.3854,171.3091,397.1168,176.5051,399.896,173.726,405.092,181.4896,398.3854" style="stroke:#EC7211;stroke-width:3.125;"/></g><!--link Organizador to UC06--><g class="link" data-entity-1="ent0003" data-entity-2="ent0011" data-link-type="dependency" data-source-line="39" id="lnk24"><path d="M85.6458,504.0521 C99,498.2292 114.2188,491.9583 128.3854,486.9583 C153.0833,478.25 175.3605,471.8452 197.6938,465.991" fill="none" id="Organizador-to-UC06" style="stroke:#EC7211;stroke-width:3.125;"/><polygon fill="#EC7211" points="203.7396,464.4063,193.6145,462.7529,198.7015,465.7269,195.7275,470.8139,203.7396,464.4063" style="stroke:#EC7211;stroke-width:3.125;"/></g><!--link Organizador to UC08--><g class="link" data-entity-1="ent0003" data-entity-2="ent0013" data-link-type="dependency" data-source-line="40" id="lnk25"><path d="M85.8333,541.2292 C98.9375,547.1042 113.9688,552.7604 128.3854,555.7083 C218.3854,574.1563 245.3125,575.1979 335.0938,555.7083 C379.8438,546 399.3438,548.0104 428.8438,513 C464.0208,471.2708 429.6354,439.5313 460.0938,394.25 C474.9688,372.1563 494.1307,357.626 513.8703,345.8656" fill="none" id="Organizador-to-UC08" style="stroke:#EC7211;stroke-width:3.125;"/><polygon fill="#EC7211" points="519.2396,342.6667,509.053,343.8855,514.7652,345.3324,513.3182,351.0446,519.2396,342.6667" style="stroke:#EC7211;stroke-width:3.125;"/></g><!--link Organizador to UC10--><g class="link" data-entity-1="ent0003" data-entity-2="ent0015" data-link-type="dependency" data-source-line="41" id="lnk26"><path d="M64.9271,560.5313 C76.6354,582.4167 94.5625,607.7396 119.0104,620.2917 C241.5104,683.1979 299.8125,668.4063 428.8438,620.2917 C473.0313,603.8229 507.837,568.064 529.0974,542.3869" fill="none" id="Organizador-to-UC10" style="stroke:#EC7211;stroke-width:3.125;"/><polygon fill="#EC7211" points="533.0833,537.5729,523.8951,542.1366,529.7617,541.5846,530.3137,547.4512,533.0833,537.5729" style="stroke:#EC7211;stroke-width:3.125;"/></g><!--link Organizador to UC11--><g class="link" data-entity-1="ent0003" data-entity-2="ent0016" data-link-type="dependency" data-source-line="42" id="lnk27"><path d="M85.6771,521.3333 C111.0417,521.3333 138.9792,521.3333 169.0208,521.3333" fill="none" id="Organizador-to-UC11" style="stroke:#EC7211;stroke-width:3.125;"/><polygon fill="#EC7211" points="175.2708,521.3333,165.8958,517.1667,170.0625,521.3333,165.8958,525.5,175.2708,521.3333" style="stroke:#EC7211;stroke-width:3.125;"/></g><!--link Sistema to UC12--><g class="link" data-entity-1="ent0004" data-entity-2="ent0017" data-link-type="dependency" data-source-line="45" id="lnk28"><path d="M88.0104,283.1563 C111.1979,287 135.0004,290.9384 162.3963,295.4697" fill="none" id="Sistema-to-UC12" style="stroke:#EC7211;stroke-width:3.125;"/><polygon fill="#EC7211" points="168.5625,296.4896,159.9931,290.8489,163.424,295.6397,158.6332,299.0706,168.5625,296.4896" style="stroke:#EC7211;stroke-width:3.125;"/></g><!--link Sistema to UC13--><g class="link" data-entity-1="ent0004" data-entity-2="ent0018" data-link-type="dependency" data-source-line="46" id="lnk29"><path d="M88.0104,268.2292 C119.2292,261.7292 156.6001,253.9518 189.6001,247.0768" fill="none" id="Sistema-to-UC13" style="stroke:#EC7211;stroke-width:3.125;"/><polygon fill="#EC7211" points="195.7188,245.8021,185.691,243.6351,190.6199,246.8643,187.3906,251.7932,195.7188,245.8021" style="stroke:#EC7211;stroke-width:3.125;"/></g><!--link UC01 to UC02--><g class="link" data-entity-1="ent0006" data-entity-2="ent0007" data-link-type="dependency" data-source-line="49" id="lnk30"><path d="M642.8125,102.0625 C682.8229,101.3646 723.3447,100.6601 762.5322,99.983" fill="none" id="UC01-to-UC02" style="stroke:#EC7211;stroke-width:3.125;stroke-dasharray:7.2917,7.2917;"/><polygon fill="#EC7211" points="768.7813,99.875,759.3357,95.8709,763.5737,99.965,759.4796,104.203,768.7813,99.875" style="stroke:#EC7211;stroke-width:3.125;"/><text fill="#4E5D6C" font-family="'Verdana'" font-size="12.5" lengthAdjust="spacing" textLength="60.5835" x="674.9479" y="98.5611">&#171;include&#187;</text></g><!--link UC06 to UC07--><g class="link" data-entity-1="ent0011" data-entity-2="ent0012" data-link-type="dependency" data-source-line="50" id="lnk31"><path d="M298.4167,451.0417 C346.2188,447.7813 410.8375,443.3637 465.2437,439.645" fill="none" id="UC06-to-UC07" style="stroke:#EC7211;stroke-width:3.125;stroke-dasharray:7.2917,7.2917;"/><polygon fill="#EC7211" points="471.4792,439.2188,461.8419,435.7011,466.283,439.5739,462.4101,444.015,471.4792,439.2188" style="stroke:#EC7211;stroke-width:3.125;"/><text fill="#4E5D6C" font-family="'Verdana'" font-size="12.5" lengthAdjust="spacing" textLength="60.5835" x="367.3854" y="440.2278">&#171;include&#187;</text></g><!--link UC08 to UC09--><g class="link" data-entity-1="ent0013" data-entity-2="ent0014" data-link-type="dependency" data-source-line="51" id="lnk32"><path d="M626.5521,326.5417 C669.2292,326.5417 716.7604,326.5417 761.1354,326.5417" fill="none" id="UC08-to-UC09" style="stroke:#EC7211;stroke-width:3.125;stroke-dasharray:7.2917,7.2917;"/><polygon fill="#EC7211" points="767.3854,326.5417,758.0104,322.375,762.1771,326.5417,758.0104,330.7083,767.3854,326.5417" style="stroke:#EC7211;stroke-width:3.125;"/><text fill="#4E5D6C" font-family="'Verdana'" font-size="12.5" lengthAdjust="spacing" textLength="60.5835" x="674.9479" y="323.5611">&#171;include&#187;</text></g><!--link UC12 to UC10--><g class="link" data-entity-1="ent0017" data-entity-2="ent0015" data-link-type="dependency" data-source-line="52" id="lnk33"><path d="M303.625,325.375 C315.4063,331.0417 326.7188,338.5417 335.0938,348.4167 C371.2604,391.0729 326.5625,431 366.3438,470.2917 C396.8646,500.4479 437.8596,510.9276 476.8179,514.5109" fill="none" id="UC12-to-UC10" style="stroke:#EC7211;stroke-width:3.125;stroke-dasharray:7.2917,7.2917;"/><polygon fill="#EC7211" points="483.0417,515.0833,474.0877,510.0755,477.8552,514.6063,473.3244,518.3738,483.0417,515.0833" style="stroke:#EC7211;stroke-width:3.125;"/><text fill="#4E5D6C" font-family="'Verdana'" font-size="12.5" lengthAdjust="spacing" textLength="60.5835" x="367.3854" y="467.3111">&#171;include&#187;</text></g><!--link UC04 to UC01--><g class="link" data-entity-1="ent0009" data-entity-2="ent0006" data-link-type="dependency" data-source-line="55" id="lnk34"><path d="M307.0729,102.5104 C326.0521,104.6771 347.0313,106.7187 366.3438,107.7917 C397.6146,109.5417 425.6486,109.5194 456.0757,108.6132" fill="none" id="UC04-to-UC01" style="stroke:#EC7211;stroke-width:3.125;stroke-dasharray:7.2917,7.2917;"/><polygon fill="#EC7211" points="462.3229,108.4271,452.828,104.5414,457.1169,108.5821,453.0761,112.871,462.3229,108.4271" style="stroke:#EC7211;stroke-width:3.125;"/><text fill="#4E5D6C" font-family="'Verdana'" font-size="12.5" lengthAdjust="spacing" textLength="58.8318" x="368.4271" y="104.8111">&#171;extend&#187;</text></g><!--link UC13 to UC01--><g class="link" data-entity-1="ent0018" data-entity-2="ent0006" data-link-type="dependency" data-source-line="56" id="lnk35"><path d="M280.9271,223.3958 C297.5104,217.3854 317.4271,209.9167 335.0938,202.5833 C397.5938,176.6667 463.0149,145.9099 505.817,125.2953" fill="none" id="UC13-to-UC01" style="stroke:#EC7211;stroke-width:3.125;stroke-dasharray:7.2917,7.2917;"/><polygon fill="#EC7211" points="511.4479,122.5833,501.1935,122.8974,506.7555,124.8433,504.8095,130.4053,511.4479,122.5833" style="stroke:#EC7211;stroke-width:3.125;"/><text fill="#4E5D6C" font-family="'Verdana'" font-size="12.5" lengthAdjust="spacing" textLength="58.8318" x="368.4271" y="161.0611">&#171;extend&#187;</text></g><!--link UC13 to UC08--><g class="link" data-entity-1="ent0018" data-entity-2="ent0013" data-link-type="dependency" data-source-line="57" id="lnk36"><path d="M284.8542,247.6771 C341.1146,264.3854 438.04,293.189 497.8629,310.9598" fill="none" id="UC13-to-UC08" style="stroke:#EC7211;stroke-width:3.125;stroke-dasharray:7.2917,7.2917;"/><polygon fill="#EC7211" points="503.8542,312.7396,496.0538,306.0758,498.8615,311.2565,493.6808,314.0641,503.8542,312.7396" style="stroke:#EC7211;stroke-width:3.125;"/><text fill="#4E5D6C" font-family="'Verdana'" font-size="12.5" lengthAdjust="spacing" textLength="58.8318" x="368.4271" y="270.4361">&#171;extend&#187;</text></g><?plantuml-src ZPHDRnen48Rl-okcUsaYDH4BAI5LX8HeHIErfGfgJrockmDOyTh8DlrKVqpKGqyvLRrmPFzOlTzhig3k0UtEwyVpUcRC4xEYc02_w3EfK2p9ypWj31W9YYrN1YAcA3HC2a_VCR56XJ6iCRp39StCDqwGoXRabiJGI0KZmybWyJ5LInJiEqPI5H5_nhIX6EVYPBGnCaxk3GlbgG-eeP0yhzgqMWuHmOIqINv9YEpIAMVnEdd0zFraDfdQ3Nvu7jZdAPpP1yQefKwfZRQ4B6nbMhPieob4RHFS21qg-amAA8QnZDTaMFBRvl7JPQcj3-DEu39ZAVI66rGDu2_fd2YPxY7cbhANI5P0GVJs21GXSGja5fkc6ip5qLCtwjzoz75QFgESOpHIv0cUkyo8oz02R-mlRvXf4dsN-4YABLYOPH4BpkniHJGNhwLAxXMJVa5TkjGjBLdkhIgNlvTdu18lQS44irauQfrbp8vZ1otORPz1TxS5WjvkUrfcl7Bv2UNPE9haZpKs5xQERob2la9TC47d4KCYP5YElVRtgn44Xnk4zGNGRUsHmk0dnct_L6LaBjQsb-ynUQWyxGtQEscAUkUU_4ST2dgEf_J8-G2tNPJgUrXV13VMROdrMc8NHxAs3geR7DRJs2Bq3mc30qBHoXOXEEAp_3kgFDQ1OTsBlQ1RxXiHyar4ZOwdTONpyxoOy0Akhrc-PZWizNwfNxRhWrA_QjM3Rg47dJszwUpLLqCYSerTb1i76KZPadhVtd_A0rV--Gy0?></g></svg>